<svg id="Layer_1" enable-background="new 0 0 511.983 511.983" height="512" viewBox="0 0 511.983 511.983" width="512"
    xmlns="http://www.w3.org/2000/svg">
    <g>
        <path d="m166.148 359.175h179.687v152.808h-179.687z" fill="#faf0f0"/>
        <path d="m255.992 359.175h89.843v152.808h-89.843z" fill="#efe2dd"/>
        <path d="m161.147 359.175c-57.803 0-104.828 47.025-104.828 104.827v47.98h129.828v-152.807z" fill="#ffda44"/>
        <path d="m350.836 359.175h-25v152.808h129.828v-47.98c0-57.803-47.026-104.828-104.828-104.828z" fill="#ffda44"/>
        <path d="m350.836 359.175h-25v152.808h129.828v-47.98c0-57.803-47.026-104.828-104.828-104.828z" fill="#ffb655"/>
        <path d="m219.321 261.064 17.489-7.329c12.19-5.109 26.173-5.109 38.363 0l17.487 7.329c21.162 8.87 43.528 13.368 66.478 13.368h11.242c7.966-17.832 12.194-37.278 12.194-57.002v-97.45h-253.166v97.45c0 19.724 4.228 39.17 12.194 57.002h11.242c22.95 0 45.316-4.498 66.477-13.368z" fill="#ffddce"/>
        <path d="m255.992 119.98v129.922c6.543 0 13.086 1.277 19.182 3.832l17.487 7.329c21.162 8.87 43.528 13.368 66.478 13.368h11.242c7.966-17.832 12.194-37.278 12.194-57.002v-97.45h-126.583z" fill="#ffcbbc"/>
        <g>
            <path d="m190.988 176.508h30v30.002h-30z" fill="#5d5655"/>
        </g>
        <g>
            <path d="m290.995 176.508h30v30.002h-30z" fill="#5d5655"/>
        </g>
        <path d="m129.408 80.001v53.578l85.077 22.112c13.545 3.521 27.51 5.307 41.506 5.307 13.995 0 27.96-1.786 41.506-5.307l85.077-22.112v-53.578z" fill="#5d5655"/>
        <path d="m382.574 133.579v-53.578h-126.582v80.997c13.995 0 27.959-1.786 41.505-5.307z" fill="#3b3735"/>
        <path d="m197.03 313.289v45.886l51.592 74.504h14.751l51.58-74.504v-45.885z" fill="#ffddce"/>
        <path d="m263.373 433.679 51.58-74.504v-45.885h-58.961v120.389z" fill="#ffcbbc"/>
        <path d="m241.003 449.7v62.283h30v-62.283c37.389 5.042 69.987 28.639 86.517 62.283h32.6c-9.316-25.024-25.727-47.356-47.023-63.729-25.163-19.347-55.28-29.573-87.094-29.573s-61.931 10.227-87.094 29.573c-21.296 16.373-37.707 38.705-47.023 63.729h32.6c16.529-33.644 49.128-57.241 86.517-62.283z" fill="#5d5655"/>
        <path d="m387.459 98.498c11.476-12.53 15.344-29.705 10.346-45.944-4.998-16.238-17.854-28.267-34.39-32.175l-65.782-15.548c-27.25-6.441-56.013-6.441-83.263-.001l-65.8 15.55c-16.535 3.907-29.392 15.935-34.391 32.173-4.999 16.239-1.133 33.415 10.344 45.947l4.885 5.333h253.165z" fill="#ffda44"/>
        <path d="m359.138 244.432c-18.945 0-37.41-3.713-54.881-11.036l-17.487-7.329c-19.561-8.199-41.998-8.201-61.557 0l-17.489 7.329c-17.47 7.323-35.935 11.036-54.88 11.036h-20.783c4.427 22.379 14.297 43.541 28.856 61.358 20.318 24.867 48.839 42.088 80.308 48.488l14.768 3.004 14.768-3.004c31.468-6.4 59.988-23.621 80.307-48.488 14.558-17.818 24.428-38.98 28.856-61.358z" fill="#e1ebf0"/>
        <g>
            <path d="m290.995 176.508h30v30.002h-30z" fill="#3b3735"/>
        </g>
        <path d="m270.759 354.278c31.468-6.4 59.988-23.621 80.307-48.488 14.558-17.818 24.428-38.98 28.856-61.358h-20.783c-18.945 0-37.41-3.713-54.881-11.036l-17.487-7.329c-9.78-4.1-20.279-6.15-30.778-6.15v137.366z" fill="#bed9dd"/>
        <path d="m343.096 448.253c-25.163-19.347-55.28-29.573-87.094-29.573-.004 0-.007 0-.011 0v93.303h15.011v-62.283c37.389 5.042 69.987 28.639 86.517 62.283h32.6c-9.316-25.025-25.727-47.357-47.023-63.73z" fill="#3b3735"/>
        <path d="m387.459 98.498c11.476-12.53 15.344-29.705 10.346-45.944-4.998-16.238-17.854-28.267-34.39-32.175l-65.782-15.548c-13.628-3.221-27.635-4.832-41.641-4.831v103.833h126.581z" fill="#ffb655"/>
    </g>
</svg>